# xmcd CD database file
#
# Track frame offsets:
#	150
#	25230
#	50397
#
# Disc length: 986 seconds
#
# Revision: 0
# Processed by: cddbd v1.5.1PL2 Copyright (c) Steve Scherf et al.
# Submitted via: CDex 1.51
#
DISCID=1c03d803
DTITLE=うたいびと はね - リライ
DYEAR=2006
DGENRE=JPop
TTITLE0=リライ
TTITLE1=白紙の日々へ (LIVE)
TTITLE2=Message (LIVE)
EXTD=YEAR: 2006
EXTT0=
EXTT1=
EXTT2=
PLAYORDER=
